<svg xmlns="http://www.w3.org/2000/svg" viewBox="0 0 1200 630" width="1200" height="630" role="img" aria-label="Industrial sales, fabrication and service illustration"><style>
.ln{fill:none;stroke:#DCE7F2;stroke-width:3;stroke-linecap:round;stroke-linejoin:round}
.lt{fill:none;stroke:#DCE7F2;stroke-width:1.8;stroke-linecap:round;stroke-linejoin:round}
.dm{fill:none;stroke:#7F96B0;stroke-width:1.4;stroke-linecap:round}
.dsh{fill:none;stroke:#7F96B0;stroke-width:1.4;stroke-dasharray:7 6}
.ac{fill:none;stroke:#F6A31B;stroke-width:3.2;stroke-linecap:round;stroke-linejoin:round}
.acf{fill:#F6A31B}
.fl{fill:#16294094}
.sd{fill:#152C48}
.tx{fill:#7F96B0;font-family:ui-monospace,'IBM Plex Mono',Menlo,monospace;font-size:15px;letter-spacing:.14em}
.tb{fill:#DCE7F2;font-family:ui-monospace,'IBM Plex Mono',Menlo,monospace;font-size:17px;letter-spacing:.16em}
</style><rect width="1200" height="630" fill="#0E1E33"/><g stroke="#1B3454" stroke-width="1" opacity=".5"><line x1="40" y1="0" x2="40" y2="630"/><line x1="80" y1="0" x2="80" y2="630"/><line x1="120" y1="0" x2="120" y2="630"/><line x1="160" y1="0" x2="160" y2="630"/><line x1="200" y1="0" x2="200" y2="630"/><line x1="240" y1="0" x2="240" y2="630"/><line x1="280" y1="0" x2="280" y2="630"/><line x1="320" y1="0" x2="320" y2="630"/><line x1="360" y1="0" x2="360" y2="630"/><line x1="400" y1="0" x2="400" y2="630"/><line x1="440" y1="0" x2="440" y2="630"/><line x1="480" y1="0" x2="480" y2="630"/><line x1="520" y1="0" x2="520" y2="630"/><line x1="560" y1="0" x2="560" y2="630"/><line x1="600" y1="0" x2="600" y2="630"/><line x1="640" y1="0" x2="640" y2="630"/><line x1="680" y1="0" x2="680" y2="630"/><line x1="720" y1="0" x2="720" y2="630"/><line x1="760" y1="0" x2="760" y2="630"/><line x1="800" y1="0" x2="800" y2="630"/><line x1="840" y1="0" x2="840" y2="630"/><line x1="880" y1="0" x2="880" y2="630"/><line x1="920" y1="0" x2="920" y2="630"/><line x1="960" y1="0" x2="960" y2="630"/><line x1="1000" y1="0" x2="1000" y2="630"/><line x1="1040" y1="0" x2="1040" y2="630"/><line x1="1080" y1="0" x2="1080" y2="630"/><line x1="1120" y1="0" x2="1120" y2="630"/><line x1="1160" y1="0" x2="1160" y2="630"/><line x1="0" y1="40" x2="1200" y2="40"/><line x1="0" y1="80" x2="1200" y2="80"/><line x1="0" y1="120" x2="1200" y2="120"/><line x1="0" y1="160" x2="1200" y2="160"/><line x1="0" y1="200" x2="1200" y2="200"/><line x1="0" y1="240" x2="1200" y2="240"/><line x1="0" y1="280" x2="1200" y2="280"/><line x1="0" y1="320" x2="1200" y2="320"/><line x1="0" y1="360" x2="1200" y2="360"/><line x1="0" y1="400" x2="1200" y2="400"/><line x1="0" y1="440" x2="1200" y2="440"/><line x1="0" y1="480" x2="1200" y2="480"/><line x1="0" y1="520" x2="1200" y2="520"/><line x1="0" y1="560" x2="1200" y2="560"/><line x1="0" y1="600" x2="1200" y2="600"/></g><g><g transform="translate(6,-13) scale(0.661)" opacity=".95"><path class="ln" d="M90 400 L400 200 L710 400" fill="none"/><path class="lt" d="M134 371.6 L666 371.6" opacity=".55"/><path class="lt" d="M178 343.2 L622 343.2" opacity=".55"/><path class="lt" d="M222 314.8 L578 314.8" opacity=".55"/><path class="lt" d="M266 286.4 L534 286.4" opacity=".55"/><path class="lt" d="M310 258.0 L490 258.0" opacity=".55"/><path class="lt" d="M354 229.60000000000002 L446 229.60000000000002" opacity=".55"/><path class="ln" d="M90 400 L710 400"/><path class="lt" d="M400 200 L400 400 M245 300 L245 400 M555 300 L555 400 M168 350 L168 400 M632 350 L632 400"/><path class="lt" d="M245 300 L400 400 M555 300 L400 400"/><path class="ac" d="M170 452 l18 -30 l18 30 l18 -30 l18 30" opacity=".95"/><path class="ac" d="M238 452 l18 -30 l18 30 l18 -30 l18 30" opacity=".95"/><path class="ac" d="M306 452 l18 -30 l18 30 l18 -30 l18 30" opacity=".95"/><path class="ac" d="M374 452 l18 -30 l18 30 l18 -30 l18 30" opacity=".95"/><path class="ln" d="M120 420 L680 420"/><circle class="acf" cx="400" cy="196" r="9"/></g><g transform="translate(552,-63) scale(0.507)"><rect class="ln fl" x="90" y="366" width="230" height="68" rx="4"/><line class="dsh" x1="90" y1="400" x2="320" y2="400"/><rect class="ln fl" x="480" y="366" width="230" height="68" rx="4"/><line class="dsh" x1="480" y1="400" x2="710" y2="400"/><rect class="ln fl" x="320" y="355.0" width="18" height="90" rx="3"/><rect class="ln fl" x="462" y="355.0" width="18" height="90" rx="3"/><path class="ln" d="M338 400 L338 352 Q400 300 462 352 L462 400 Q462 452 400 452 Q338 452 338 400Z" fill="#152C48"/><path class="lt" d="M366 400 L400 366 L434 400"/><line class="ln" x1="400" y1="352" x2="400" y2="228"/><line class="ln" x1="400" y1="352" x2="400" y2="228"/><rect class="ln sd" x="352" y="196" width="96" height="34" rx="6"/><path class="ac" d="M300 196 Q400 96 500 196 Z"/><rect class="ln sd" x="296" y="186" width="208" height="14" rx="6"/><line class="lt" x1="400" y1="128" x2="400" y2="96"/><rect class="lt sd" x="368" y="66" width="64" height="30" rx="4"/><path class="dm" d="M110 470 L110 490 M700 470 L700 490 M110 480 L700 480"/><path class="acf" d="M118 474 L102 480 L118 486Z"/><path class="acf" d="M692 474 L708 480 L692 486Z"/></g><g transform="translate(-48,239) scale(0.446)" opacity=".9"><rect class="ln sd" x="120" y="452" width="560" height="34" rx="4"/><circle class="ln sd" cx="290" cy="330" r="112"/><circle class="lt" cx="290" cy="330" r="70"/><path class="ac" d="M290 330 L290 260 M290 330 L351 365 M290 330 L229 365"/><circle class="lt" cx="402.0" cy="330.0" r="5"/><circle class="lt" cx="380.6" cy="395.8" r="5"/><circle class="lt" cx="324.6" cy="436.5" r="5"/><circle class="lt" cx="255.4" cy="436.5" r="5"/><circle class="lt" cx="199.4" cy="395.8" r="5"/><circle class="lt" cx="178.0" cy="330.0" r="5"/><circle class="lt" cx="199.4" cy="264.2" r="5"/><circle class="lt" cx="255.4" cy="223.5" r="5"/><circle class="lt" cx="324.6" cy="223.5" r="5"/><circle class="lt" cx="380.6" cy="264.2" r="5"/><path class="ln" d="M290 218 L290 150 L228 150" fill="none"/><rect class="ln fl" x="212" y="111.0" width="16" height="78" rx="3"/><rect class="ln sd" x="380" y="450" width="0" height="0"/><path class="ln" d="M402 330 L402 452"/><rect class="ln sd" x="410" y="286" width="200" height="122" rx="10"/><path class="lt" d="M436 286 v122 M470 286 v122 M504 286 v122 M538 286 v122 M572 286 v122"/><rect class="ln sd" x="610" y="316" width="34" height="62" rx="4"/><path class="ln" d="M290 442 L290 452 M520 408 L520 452"/></g><g transform="translate(600,227) scale(0.430)" opacity=".92"><rect class="ln sd" x="110" y="196" width="580" height="256" rx="12"/><rect class="lt" x="110" y="196" width="580" height="34" rx="6"/><rect class="ln sd" x="150" y="452" width="500" height="30" rx="4"/><rect class="lt sd" x="176" y="270" width="180" height="150" rx="8"/><path class="lt" d="M204 270 v150 M232 270 v150 M260 270 v150 M288 270 v150 M316 270 v150"/><circle class="ln sd" cx="452" cy="344" r="74"/><circle class="lt" cx="452" cy="344" r="46"/><path class="ac" d="M452 298 A46 46 0 0 1 452 390"/><path class="ln" d="M356 344 L378 344"/><rect class="ln sd" x="548" y="268" width="112" height="154" rx="8"/><rect class="lt" x="566" y="286" width="76" height="42" rx="4" fill="#0B1A2E"/><text class="acf" x="604" y="316" text-anchor="middle" font-family="ui-monospace,monospace" font-size="20">50Hz</text><circle class="lt" cx="580" cy="356" r="9"/><circle class="acf" cx="608" cy="356" r="9"/><circle class="lt" cx="636" cy="356" r="9"/><rect class="lt" x="566" y="380" width="76" height="26" rx="4"/><path class="ln" d="M240 196 L240 130 L300 130"/><path class="lt" d="M300 116 h34 v28 h-34" fill="#152C48"/></g><g transform="translate(282,290) scale(0.307)" opacity=".85"><path class="ln sd" d="M110 400 L430 400 L430 452 L110 452Z"/><path class="ln sd" d="M470 400 L690 400 L690 452 L470 452Z"/><path class="ac" d="M430 400 q20 -18 40 0 q-20 18 -40 0" fill="#F6A31B" opacity=".25"/><path class="ac" d="M432 396 q4 8 8 0"/><path class="ac" d="M436 396 q4 8 8 0"/><path class="ac" d="M440 396 q4 8 8 0"/><path class="ac" d="M444 396 q4 8 8 0"/><path class="ac" d="M448 396 q4 8 8 0"/><path class="ac" d="M452 396 q4 8 8 0"/><path class="ac" d="M456 396 q4 8 8 0"/><path class="ac" d="M460 396 q4 8 8 0"/><path class="ln" d="M450 396 L562 250"/><path class="ln sd" d="M544 232 L620 168 L654 202 L578 266Z"/><path class="lt" d="M604 190 L640 226"/><path class="ac" d="M450 382 L446 350 M462 386 L482 358 M436 388 L410 364"/><circle class="acf" cx="450" cy="392" r="10"/><path class="dm" d="M110 340 L430 340 M110 332 v16 M430 332 v16"/></g><line x1="0" y1="558" x2="1200" y2="558" stroke="#7F96B0" stroke-width="1.6" opacity=".5"/></g><line x1="0" y1="628" x2="1200" y2="628" stroke="#F6A31B" stroke-width="4"/><rect x="0" y="576" width="1200" height="54" fill="#F6A31B"/><text x="36" y="611" font-family="ui-monospace,monospace" font-size="20" letter-spacing=".22em" fill="#0E1E33">SALES · FABRICATION · SERVICE</text></svg>