<svg xmlns="http://www.w3.org/2000/svg" viewBox="0 0 800 600" width="800" height="600" role="img" aria-label="Air Compressor schematic illustration"><style>
.ln{fill:none;stroke:#DCE7F2;stroke-width:3;stroke-linecap:round;stroke-linejoin:round}
.lt{fill:none;stroke:#DCE7F2;stroke-width:1.8;stroke-linecap:round;stroke-linejoin:round}
.dm{fill:none;stroke:#7F96B0;stroke-width:1.4;stroke-linecap:round}
.dsh{fill:none;stroke:#7F96B0;stroke-width:1.4;stroke-dasharray:7 6}
.ac{fill:none;stroke:#F6A31B;stroke-width:3.2;stroke-linecap:round;stroke-linejoin:round}
.acf{fill:#F6A31B}
.fl{fill:#16294094}
.sd{fill:#152C48}
.tx{fill:#7F96B0;font-family:ui-monospace,'IBM Plex Mono',Menlo,Consolas,monospace;font-size:15px;letter-spacing:.14em}
.tb{fill:#DCE7F2;font-family:ui-monospace,'IBM Plex Mono',Menlo,Consolas,monospace;font-size:17px;letter-spacing:.16em}
</style><rect width="800" height="600" fill="#0E1E33"/><g stroke="#1B3454" stroke-width="1" opacity=".55"><line x1="40" y1="0" x2="40" y2="600"/><line x1="80" y1="0" x2="80" y2="600"/><line x1="120" y1="0" x2="120" y2="600"/><line x1="160" y1="0" x2="160" y2="600"/><line x1="200" y1="0" x2="200" y2="600"/><line x1="240" y1="0" x2="240" y2="600"/><line x1="280" y1="0" x2="280" y2="600"/><line x1="320" y1="0" x2="320" y2="600"/><line x1="360" y1="0" x2="360" y2="600"/><line x1="400" y1="0" x2="400" y2="600"/><line x1="440" y1="0" x2="440" y2="600"/><line x1="480" y1="0" x2="480" y2="600"/><line x1="520" y1="0" x2="520" y2="600"/><line x1="560" y1="0" x2="560" y2="600"/><line x1="600" y1="0" x2="600" y2="600"/><line x1="640" y1="0" x2="640" y2="600"/><line x1="680" y1="0" x2="680" y2="600"/><line x1="720" y1="0" x2="720" y2="600"/><line x1="760" y1="0" x2="760" y2="600"/><line x1="0" y1="40" x2="800" y2="40"/><line x1="0" y1="80" x2="800" y2="80"/><line x1="0" y1="120" x2="800" y2="120"/><line x1="0" y1="160" x2="800" y2="160"/><line x1="0" y1="200" x2="800" y2="200"/><line x1="0" y1="240" x2="800" y2="240"/><line x1="0" y1="280" x2="800" y2="280"/><line x1="0" y1="320" x2="800" y2="320"/><line x1="0" y1="360" x2="800" y2="360"/><line x1="0" y1="400" x2="800" y2="400"/><line x1="0" y1="440" x2="800" y2="440"/><line x1="0" y1="480" x2="800" y2="480"/><line x1="0" y1="520" x2="800" y2="520"/><line x1="0" y1="560" x2="800" y2="560"/></g><g fill="none" stroke="#F6A31B" stroke-width="2.4" opacity=".9"><path d="M26 60 L26 26 L60 26"/><path d="M774 60 L774 26 L740 26"/><path d="M26 540 L26 574 L60 574"/><path d="M774 540 L774 574 L740 574"/></g><g><rect class="ln sd" x="120" y="330" width="500" height="150" rx="75"/><path class="lt" d="M196 330 A75 75 0 0 0 196 480"/><path class="lt" d="M552 330 A75 75 0 0 1 552 480"/><rect class="ln sd" x="176" y="480" width="34" height="52" rx="4"/><rect class="ln sd" x="530" y="480" width="34" height="52" rx="4"/><rect class="ln sd" x="250" y="212" width="150" height="118" rx="8"/><path class="lt" d="M272 212 v118 M300 212 v118 M328 212 v118 M356 212 v118"/><rect class="ln sd" x="400" y="238" width="130" height="92" rx="8"/><circle class="lt" cx="465" cy="284" r="30"/><circle class="acf" cx="465" cy="284" r="8"/><circle class="ln sd" cx="196" cy="236" r="44"/><circle class="lt" cx="196" cy="236" r="30"/><path class="ac" d="M196 236 L226 206"/><path class="ln" d="M196 280 L196 330"/><rect class="ln sd" x="560" y="252" width="60" height="44" rx="5"/><path class="ln" d="M590 296 L590 330"/><text class="tx" x="128" y="180">RECEIVER TANK</text><line class="dm" x1="620" y1="404" x2="700" y2="404"/><text class="tx" x="628" y="392">OUT</text></g><line x1="60" y1="524" x2="740" y2="524" stroke="#1B3454" stroke-width="2"/><text class="tb" x="60" y="556">AIR COMPRESSOR</text><text class="tx" x="740" y="556" text-anchor="end">EQP-02</text></svg>