<svg xmlns="http://www.w3.org/2000/svg" viewBox="0 0 800 600" width="800" height="600" role="img" aria-label="Cattle Shed schematic illustration"><style>
.ln{fill:none;stroke:#DCE7F2;stroke-width:3;stroke-linecap:round;stroke-linejoin:round}
.lt{fill:none;stroke:#DCE7F2;stroke-width:1.8;stroke-linecap:round;stroke-linejoin:round}
.dm{fill:none;stroke:#7F96B0;stroke-width:1.4;stroke-linecap:round}
.dsh{fill:none;stroke:#7F96B0;stroke-width:1.4;stroke-dasharray:7 6}
.ac{fill:none;stroke:#F6A31B;stroke-width:3.2;stroke-linecap:round;stroke-linejoin:round}
.acf{fill:#F6A31B}
.fl{fill:#16294094}
.sd{fill:#152C48}
.tx{fill:#7F96B0;font-family:ui-monospace,'IBM Plex Mono',Menlo,Consolas,monospace;font-size:15px;letter-spacing:.14em}
.tb{fill:#DCE7F2;font-family:ui-monospace,'IBM Plex Mono',Menlo,Consolas,monospace;font-size:17px;letter-spacing:.16em}
</style><rect width="800" height="600" fill="#0E1E33"/><g stroke="#1B3454" stroke-width="1" opacity=".55"><line x1="40" y1="0" x2="40" y2="600"/><line x1="80" y1="0" x2="80" y2="600"/><line x1="120" y1="0" x2="120" y2="600"/><line x1="160" y1="0" x2="160" y2="600"/><line x1="200" y1="0" x2="200" y2="600"/><line x1="240" y1="0" x2="240" y2="600"/><line x1="280" y1="0" x2="280" y2="600"/><line x1="320" y1="0" x2="320" y2="600"/><line x1="360" y1="0" x2="360" y2="600"/><line x1="400" y1="0" x2="400" y2="600"/><line x1="440" y1="0" x2="440" y2="600"/><line x1="480" y1="0" x2="480" y2="600"/><line x1="520" y1="0" x2="520" y2="600"/><line x1="560" y1="0" x2="560" y2="600"/><line x1="600" y1="0" x2="600" y2="600"/><line x1="640" y1="0" x2="640" y2="600"/><line x1="680" y1="0" x2="680" y2="600"/><line x1="720" y1="0" x2="720" y2="600"/><line x1="760" y1="0" x2="760" y2="600"/><line x1="0" y1="40" x2="800" y2="40"/><line x1="0" y1="80" x2="800" y2="80"/><line x1="0" y1="120" x2="800" y2="120"/><line x1="0" y1="160" x2="800" y2="160"/><line x1="0" y1="200" x2="800" y2="200"/><line x1="0" y1="240" x2="800" y2="240"/><line x1="0" y1="280" x2="800" y2="280"/><line x1="0" y1="320" x2="800" y2="320"/><line x1="0" y1="360" x2="800" y2="360"/><line x1="0" y1="400" x2="800" y2="400"/><line x1="0" y1="440" x2="800" y2="440"/><line x1="0" y1="480" x2="800" y2="480"/><line x1="0" y1="520" x2="800" y2="520"/><line x1="0" y1="560" x2="800" y2="560"/></g><g fill="none" stroke="#F6A31B" stroke-width="2.4" opacity=".9"><path d="M26 60 L26 26 L60 26"/><path d="M774 60 L774 26 L740 26"/><path d="M26 540 L26 574 L60 574"/><path d="M774 540 L774 574 L740 574"/></g><g><path class="ln" d="M110 262 L400 150 L690 262"/><path class="lt" d="M140 276 L400 176 L660 276" opacity=".7"/><path class="ln" d="M110 262 L690 262"/><path class="ln" d="M150 262 L150 452 M650 262 L650 452 M400 262 L400 452 M275 262 L275 452 M525 262 L525 452"/><path class="ln" d="M96 452 L704 452"/><path class="lt" d="M150 330 L650 330" opacity=".6"/><rect class="ln sd" x="196" y="380" width="140" height="52" rx="6"/><rect class="ln sd" x="464" y="380" width="140" height="52" rx="6"/><path class="ac" d="M196 406 L336 406 M464 406 L604 406"/><text class="tx" x="212" y="500">FEED MANGER</text><path class="dm" d="M96 490 L704 490 M96 482 v16 M704 482 v16"/><text class="tx" x="430" y="140">OPEN-SIDE SHED</text></g><line x1="60" y1="524" x2="740" y2="524" stroke="#1B3454" stroke-width="2"/><text class="tb" x="60" y="556">CATTLE SHED</text><text class="tx" x="740" y="556" text-anchor="end">SRV-03</text><g><rect x="0" y="0" width="800" height="46" fill="#F6A31B" opacity=".92"/><text x="24" y="31" font-family="ui-monospace,monospace" font-size="17" letter-spacing=".2em" fill="#0E1E33">PLACEHOLDER — REPLACE WITH SITE PHOTO</text></g></svg>